<svg width="60" height="60" viewBox="0 0 60 60" fill="none" xmlns="http://www.w3.org/2000/svg">
<rect x="1.19" y="1.19" width="57.62" height="57.62" rx="28.81" stroke="#0D4B7A" stroke-width="2.38"/>
<path d="M37.0304 24.1546C34.9323 22.6699 32.598 21.8393 30.2121 21.7335C27.8317 21.8475 25.5056 22.678 23.4156 24.1627M16.8633 18.6772C20.5917 15.5117 25.2903 13.716 30.1796 13.5879C35.0623 13.7203 39.7534 15.5158 43.4769 18.6772M38.5341 41.6102H42.079V43.9716C42.079 45.9313 40.4911 47.5192 38.5341 47.5192H36.1727C35.2326 47.5192 34.3309 47.1457 33.6661 46.4809C33.0013 45.8161 32.6279 44.9145 32.6279 43.9743V36.8846C32.6279 34.9303 34.213 33.3397 36.1727 33.3397H38.5341C40.0786 33.3397 41.3896 34.3277 41.8781 35.7039M27.221 33.3506H19.545L18.3643 40.4349L19.2329 40.0006C20.2164 39.5094 21.3011 39.2547 22.4004 39.2569H24.2679C26.2249 39.2569 27.81 40.842 27.81 42.799V43.9797C27.81 45.934 26.2249 47.5219 24.2679 47.5219H21.9064C21.1741 47.5217 20.4598 47.2945 19.862 46.8716C19.2641 46.4487 18.812 45.8509 18.5679 45.1605" stroke="#0D4B7A" stroke-width="2.375" stroke-linecap="round" stroke-linejoin="round"/>
</svg>
