<svg width="60" height="60" viewBox="0 0 60 60" fill="none" xmlns="http://www.w3.org/2000/svg">
<rect x="1.19" y="1.19" width="57.62" height="57.62" rx="28.81" stroke="white" stroke-width="2.38"/>
<path d="M42.6671 22.9505C42.654 23.7927 42.4171 24.6163 41.9808 25.3368C43.0645 25.5462 44.0415 26.1264 44.7441 26.9777C45.4466 27.829 45.8309 28.8983 45.8309 30.0021C45.8309 31.1059 45.4466 32.1752 44.7441 33.0265C44.0415 33.8778 43.0645 34.458 41.9808 34.6674C42.4167 35.3879 42.6532 36.2113 42.6662 37.0533C42.6791 37.8953 42.468 38.7256 42.0544 39.4591C41.6409 40.1927 41.0397 40.8031 40.3126 41.2278C39.5854 41.6526 38.7584 41.8764 37.9163 41.8763C37.9163 42.9261 37.4993 43.9329 36.757 44.6753C36.0146 45.4176 35.0078 45.8346 33.958 45.8346C32.9082 45.8346 31.9014 45.4176 31.1591 44.6753C30.4167 43.9329 29.9997 42.9261 29.9997 41.8763C29.9997 42.9261 29.5826 43.9329 28.8403 44.6753C28.098 45.4176 27.0912 45.8346 26.0413 45.8346C24.9915 45.8346 23.9847 45.4176 23.2424 44.6753C22.5001 43.9329 22.083 42.9261 22.083 41.8763C20.8232 41.8763 19.6151 41.3759 18.7243 40.4851C17.8335 39.5943 17.333 38.3861 17.333 37.1263C17.3326 36.2589 17.5697 35.408 18.0186 34.6658C16.9349 34.4564 15.9578 33.8762 15.2553 33.0249C14.5527 32.1736 14.1685 31.1043 14.1685 30.0005C14.1685 28.8967 14.5527 27.8274 15.2553 26.9761C15.9578 26.1248 16.9349 25.5446 18.0186 25.3352C17.5827 24.6147 17.3461 23.7913 17.3332 22.9493C17.3202 22.1073 17.5314 21.277 17.9449 20.5435C18.3585 19.8099 18.9597 19.1995 19.6868 18.7748C20.4139 18.35 21.2409 18.1262 22.083 18.1263C22.083 17.0765 22.5001 16.0697 23.2424 15.3273C23.9847 14.585 24.9915 14.168 26.0413 14.168C27.0912 14.168 28.098 14.585 28.8403 15.3273C29.5826 16.0697 29.9997 17.0765 29.9997 18.1263C29.9997 17.0765 30.4167 16.0697 31.1591 15.3273C31.9014 14.585 32.9082 14.168 33.958 14.168C35.0078 14.168 36.0146 14.585 36.757 15.3273C37.4993 16.0697 37.9163 17.0765 37.9163 18.1263C38.7587 18.1261 39.5859 18.3498 40.3133 18.7746" stroke="white" stroke-width="2.375" stroke-linecap="round" stroke-linejoin="round"/>
<path d="M22.8752 33.959L25.7917 25.2095C25.865 24.9911 26.0049 24.8013 26.1919 24.6668C26.3788 24.5323 26.6033 24.46 26.8336 24.46C27.0639 24.46 27.2883 24.5323 27.4753 24.6668C27.6622 24.8013 27.8022 24.9911 27.8754 25.2095L30.7919 33.959M35.5419 24.459V33.959M24.4586 30.7923H29.2086" stroke="white" stroke-width="2.375" stroke-linecap="round" stroke-linejoin="round"/>
</svg>
