<svg width="91" height="90" viewBox="0 0 91 90" fill="none" xmlns="http://www.w3.org/2000/svg">
<path d="M90.4999 46.7311C90.4999 52.4133 89.3807 58.0399 87.2062 63.2896C85.0317 68.5392 81.8445 73.3092 77.8266 77.3271C73.8087 81.345 69.0387 84.5322 63.7891 86.7067C58.5394 88.8812 52.9128 90.0004 47.2307 90.0004V46.7311H90.4999Z" fill="#ADB5C2"/>
<path d="M0.500114 43.2689C0.500114 37.5867 1.61931 31.9601 3.79379 26.7104C5.96827 21.4608 9.15546 16.6908 13.1734 12.6729C17.1913 8.65497 21.9613 5.46778 27.2109 3.2933C32.4606 1.11882 38.0872 -0.00037384 43.7693 -0.00037384L43.7693 43.2689L0.500114 43.2689Z" fill="#ADB5C2"/>
<rect x="11.2307" y="10.7305" width="68.5385" height="68.5385" rx="34.2692" fill="white"/>
<rect x="11.2307" y="10.7305" width="68.5385" height="68.5385" rx="34.2692" stroke="black" stroke-width="3"/>
<path d="M57.084 42.6465L56.7461 42.3086H56.2682H46.269C45.2141 42.3086 44.3461 41.4406 44.3461 40.3856V35.0015C44.3461 33.9465 45.2141 33.0786 46.269 33.0786H57.8065C58.8615 33.0786 59.7295 33.9465 59.7295 35.0015V45.2919L57.084 42.6465Z" stroke="black" stroke-width="2.3075"/>
<path d="M34.7315 40.0009H34.2536L33.9156 40.3389L31.2702 42.9843V32.6939C31.2702 31.6389 32.1382 30.7709 33.1931 30.7709H44.7306C45.7856 30.7709 46.6535 31.6389 46.6535 32.6939V38.078C46.6535 39.133 45.7856 40.0009 44.7306 40.0009H34.7315Z" stroke="black" stroke-width="2.3075"/>
<path d="M38.962 50.3859C38.962 51.8727 37.7567 53.078 36.2699 53.078C34.7831 53.078 33.5778 51.8727 33.5778 50.3859C33.5778 48.8991 34.7831 47.6938 36.2699 47.6938C37.7567 47.6938 38.962 48.8991 38.962 50.3859Z" stroke="black" stroke-width="2.3075"/>
<path d="M57.4219 50.3859C57.4219 51.8727 56.2167 53.078 54.7299 53.078C53.2431 53.078 52.0378 51.8727 52.0378 50.3859C52.0378 48.8991 53.2431 47.6938 54.7299 47.6938C56.2167 47.6938 57.4219 48.8991 57.4219 50.3859Z" stroke="black" stroke-width="2.3075"/>
<path d="M41.1844 59.0826C41.216 59.1225 41.2443 59.1597 41.2694 59.1936V59.2318H31.2702V59.1936C31.2952 59.1597 31.3235 59.1225 31.3552 59.0826C31.5369 58.853 31.8249 58.5362 32.2322 58.2167C33.035 57.5871 34.3277 56.9243 36.2698 56.9243C38.2119 56.9243 39.5046 57.5871 40.3074 58.2167C40.7147 58.5362 41.0027 58.853 41.1844 59.0826ZM59.6444 59.0826C59.676 59.1225 59.7043 59.1597 59.7294 59.1936V59.2318H49.7302V59.1936C49.7552 59.1597 49.7835 59.1225 49.8152 59.0826C49.9969 58.853 50.2849 58.5362 50.6922 58.2167C51.495 57.5871 52.7877 56.9243 54.7298 56.9243C56.6719 56.9243 57.9646 57.5871 58.7674 58.2167C59.1747 58.5362 59.4627 58.853 59.6444 59.0826Z" stroke="black" stroke-width="2.3075"/>
</svg>
