<svg width="62" height="63" viewBox="0 0 62 63" fill="none" xmlns="http://www.w3.org/2000/svg">
<rect y="0.341309" width="62" height="62" rx="31" fill="white"/>
<path d="M41.0404 29.3009L40.7475 29.008H40.3333H31.6667C30.7523 29.008 30 28.2557 30 27.3413V22.6746C30 21.7603 30.7523 21.008 31.6667 21.008H41.6667C42.581 21.008 43.3333 21.7603 43.3333 22.6746V31.5938L41.0404 29.3009Z" stroke="black" stroke-width="2"/>
<path d="M21.667 27.008H21.2528L20.9599 27.3009L18.667 29.5938V20.6746C18.667 19.7603 19.4193 19.008 20.3337 19.008H30.3337C31.248 19.008 32.0003 19.7603 32.0003 20.6746V25.3413C32.0003 26.2557 31.248 27.008 30.3337 27.008H21.667Z" stroke="black" stroke-width="2"/>
<path d="M25.3327 36.008C25.3327 37.2966 24.288 38.3413 22.9993 38.3413C21.7107 38.3413 20.666 37.2966 20.666 36.008C20.666 34.7193 21.7107 33.6746 22.9993 33.6746C24.288 33.6746 25.3327 34.7193 25.3327 36.008Z" stroke="black" stroke-width="2"/>
<path d="M41.3327 36.008C41.3327 37.2966 40.288 38.3413 38.9993 38.3413C37.7107 38.3413 36.666 37.2966 36.666 36.008C36.666 34.7193 37.7107 33.6746 38.9993 33.6746C40.288 33.6746 41.3327 34.7193 41.3327 36.008Z" stroke="black" stroke-width="2"/>
<path d="M27.26 43.5453C27.2874 43.58 27.312 43.6122 27.3337 43.6415V43.6746H18.667V43.6415C18.6887 43.6122 18.7132 43.58 18.7406 43.5453C18.8982 43.3463 19.1477 43.0717 19.5008 42.7948C20.1966 42.2491 21.317 41.6746 23.0003 41.6746C24.6836 41.6746 25.8041 42.2491 26.4999 42.7948C26.8529 43.0717 27.1025 43.3463 27.26 43.5453ZM43.26 43.5453C43.2874 43.58 43.312 43.6122 43.3337 43.6415V43.6746H34.667V43.6415C34.6887 43.6122 34.7132 43.58 34.7406 43.5453C34.8982 43.3463 35.1477 43.0717 35.5008 42.7948C36.1966 42.2491 37.317 41.6746 39.0003 41.6746C40.6836 41.6746 41.8041 42.2491 42.4998 42.7948C42.8529 43.0717 43.1025 43.3463 43.26 43.5453Z" stroke="black" stroke-width="2"/>
</svg>
