<svg width="60" height="60" viewBox="0 0 60 60" fill="none" xmlns="http://www.w3.org/2000/svg">
<rect x="1.19" y="1.19" width="57.62" height="57.62" rx="28.81" stroke="white" stroke-width="2.38"/>
<path d="M40.8997 18.5301C42.3057 19.0035 43.0087 19.2394 43.2937 19.5735C43.5787 19.9076 43.6611 20.3968 43.8289 21.3721C45.6133 31.8158 41.7183 41.471 32.4194 45.2282C31.4203 45.632 30.9184 45.8346 30.0017 45.8346C29.0849 45.8346 28.5846 45.6336 27.5855 45.2298C18.2866 41.471 14.3868 31.8158 16.1712 21.3721C16.3375 20.3968 16.4214 19.9076 16.7064 19.5751C16.9898 19.241 17.6944 19.0051 19.1004 18.5301C22.56 17.3647 25.4844 14.168 29.9969 14.168C32.3229 14.168 34.2282 15.0173 36.0025 16" stroke="white" stroke-width="2.375" stroke-linecap="round" stroke-linejoin="round"/>
<path d="M27.5456 21.2969V24.4303M22.0245 26.8385H25.2735M34.7276 26.8385H37.9766M34.7276 31.5474H37.9766M22.0245 31.5474H25.2735M27.5456 33.9936V37.1286M32.3352 33.9936V37.1286M32.3194 21.2969V24.4303M26.8569 33.9129H33.1443C33.5642 33.9129 33.9669 33.7461 34.2639 33.4491C34.5608 33.1522 34.7276 32.7495 34.7276 32.3295V26.0136C34.7276 25.5937 34.5608 25.191 34.2639 24.894C33.9669 24.5971 33.5642 24.4303 33.1443 24.4303H26.8569C26.4369 24.4303 26.0342 24.5971 25.7373 24.894C25.4404 25.191 25.2735 25.5937 25.2735 26.0136V32.3295C25.2735 32.7495 25.4404 33.1522 25.7373 33.4491C26.0342 33.7461 26.4369 33.9129 26.8569 33.9129Z" stroke="white" stroke-width="2.375" stroke-linecap="round" stroke-linejoin="round"/>
</svg>
