<svg width="60" height="60" viewBox="0 0 60 60" fill="none" xmlns="http://www.w3.org/2000/svg">
<rect x="1.19" y="1.19" width="57.62" height="57.62" rx="28.81" stroke="white" stroke-width="2.38"/>
<path d="M19.3125 25.25C18.1382 25.25 16.9902 24.9018 16.0138 24.2494C15.0374 23.5969 14.2764 22.6696 13.827 21.5847C13.3776 20.4997 13.26 19.3059 13.4891 18.1542C13.7182 17.0024 14.2837 15.9444 15.1141 15.1141C15.9444 14.2837 17.0024 13.7182 18.1542 13.4891C19.3059 13.26 20.4997 13.3776 21.5847 13.827C22.6696 14.2764 23.5969 15.0374 24.2494 16.0138C24.9018 16.9902 25.25 18.1382 25.25 19.3125H22.875C22.875 18.6079 22.6661 17.9191 22.2746 17.3333C21.8832 16.7474 21.3268 16.2908 20.6758 16.0212C20.0249 15.7515 19.3086 15.681 18.6175 15.8185C17.9264 15.9559 17.2917 16.2952 16.7934 16.7934C16.2952 17.2917 15.9559 17.9264 15.8185 18.6175C15.681 19.3086 15.7515 20.0249 16.0212 20.6758C16.2908 21.3268 16.7474 21.8832 17.3333 22.2746C17.9191 22.6661 18.6079 22.875 19.3125 22.875V25.25ZM40.6875 25.25V22.875C41.3921 22.875 42.0809 22.6661 42.6667 22.2746C43.2526 21.8832 43.7092 21.3268 43.9788 20.6758C44.2485 20.0249 44.319 19.3086 44.1816 18.6175C44.0441 17.9264 43.7048 17.2917 43.2066 16.7934C42.7083 16.2952 42.0736 15.9559 41.3825 15.8185C40.6915 15.681 39.9752 15.7515 39.3242 16.0212C38.6732 16.2908 38.1168 16.7474 37.7254 17.3333C37.3339 17.9191 37.125 18.6079 37.125 19.3125H34.75C34.75 18.1382 35.0982 16.9902 35.7507 16.0138C36.4031 15.0374 37.3304 14.2764 38.4153 13.827C39.5003 13.3776 40.6941 13.26 41.8459 13.4891C42.9976 13.7182 44.0556 14.2837 44.8859 15.1141C45.7163 15.9444 46.2818 17.0024 46.5109 18.1542C46.74 19.3059 46.6224 20.4997 46.173 21.5847C45.7236 22.6696 44.9626 23.5969 43.9862 24.2494C43.0098 24.9018 41.8618 25.25 40.6875 25.25ZM19.3125 46.625C17.7378 46.625 16.2276 45.9994 15.1141 44.8859C14.0006 43.7725 13.375 42.2622 13.375 40.6875C13.375 39.1128 14.0006 37.6026 15.1141 36.4891C16.2276 35.3756 17.7378 34.75 19.3125 34.75V37.125C18.6079 37.125 17.9191 37.3339 17.3333 37.7254C16.7474 38.1168 16.2908 38.6732 16.0212 39.3242C15.7515 39.9752 15.681 40.6915 15.8185 41.3825C15.9559 42.0736 16.2952 42.7083 16.7934 43.2066C17.2917 43.7048 17.9264 44.0441 18.6175 44.1816C19.3086 44.319 20.0249 44.2485 20.6758 43.9788C21.3268 43.7092 21.8832 43.2526 22.2746 42.6667C22.6661 42.0809 22.875 41.3921 22.875 40.6875H25.25C25.2481 42.2616 24.622 43.7708 23.5089 44.8839C22.3958 45.997 20.8866 46.6231 19.3125 46.625ZM40.6875 46.625C39.1134 46.6231 37.6042 45.997 36.4911 44.8839C35.378 43.7708 34.7519 42.2616 34.75 40.6875H37.125C37.125 41.3921 37.3339 42.0809 37.7254 42.6667C38.1168 43.2526 38.6732 43.7092 39.3242 43.9788C39.9752 44.2485 40.6915 44.319 41.3825 44.1816C42.0736 44.0441 42.7083 43.7048 43.2066 43.2066C43.7048 42.7083 44.0441 42.0736 44.1816 41.3825C44.319 40.6915 44.2485 39.9752 43.9788 39.3242C43.7092 38.6732 43.2526 38.1168 42.6667 37.7254C42.0809 37.3339 41.3921 37.125 40.6875 37.125V34.75C42.2622 34.75 43.7725 35.3756 44.8859 36.4891C45.9994 37.6026 46.625 39.1128 46.625 40.6875C46.625 42.2622 45.9994 43.7725 44.8859 44.8859C43.7725 45.9994 42.2622 46.625 40.6875 46.625Z" fill="white"/>
<path d="M34.7497 33.0737V26.932L41.5268 20.1549C41.6402 20.0454 41.7307 19.9144 41.7929 19.7695C41.8552 19.6246 41.8879 19.4688 41.8893 19.3111C41.8907 19.1534 41.8606 18.9971 41.8009 18.8511C41.7412 18.7052 41.653 18.5726 41.5415 18.4611C41.43 18.3496 41.2974 18.2614 41.1515 18.2017C41.0056 18.142 40.8492 18.112 40.6915 18.1133C40.5338 18.1147 40.378 18.1475 40.2331 18.2097C40.0883 18.2719 39.9572 18.3624 39.8477 18.4758L34.5039 23.8196C34.2049 22.8587 33.6064 22.0186 32.7959 21.4221C31.9855 20.8255 31.0055 20.5037 29.9992 20.5037C28.9928 20.5037 28.0128 20.8255 27.2024 21.4221C26.3919 22.0186 25.7934 22.8587 25.4944 23.8196L20.1518 18.4758C19.9291 18.2532 19.6271 18.1281 19.3122 18.1281C18.9974 18.1281 18.6954 18.2532 18.4727 18.4758C18.2501 18.6985 18.125 19.0005 18.125 19.3154C18.125 19.6303 18.2501 19.9322 18.4727 20.1549L25.2497 26.932V33.0737L18.4727 39.8508C18.2501 40.0735 18.125 40.3755 18.125 40.6904C18.125 41.0053 18.2501 41.3072 18.4727 41.5299C18.6954 41.7526 18.9974 41.8776 19.3122 41.8776C19.6271 41.8776 19.9291 41.7526 20.1518 41.5299L25.4956 36.1862C25.7946 37.1471 26.3931 37.9871 27.2036 38.5837C28.014 39.1802 28.994 39.502 30.0003 39.502C31.0067 39.502 31.9867 39.1802 32.7971 38.5837C33.6076 37.9871 34.2061 37.1471 34.5051 36.1862L39.8489 41.5299C40.0728 41.7463 40.3728 41.8659 40.6842 41.8632C40.9955 41.8605 41.2934 41.7356 41.5135 41.5155C41.7337 41.2953 41.8586 40.9975 41.8613 40.6861C41.864 40.3747 41.7443 40.0748 41.528 39.8508L34.7497 33.0737ZM32.3747 34.7529C32.3747 35.3828 32.1245 35.9869 31.6791 36.4323C31.2337 36.8777 30.6296 37.1279 29.9997 37.1279C29.3699 37.1279 28.7658 36.8777 28.3204 36.4323C27.875 35.9869 27.6247 35.3828 27.6247 34.7529V25.2529C27.6247 24.623 27.875 24.0189 28.3204 23.5735C28.7658 23.1281 29.3699 22.8779 29.9997 22.8779C30.6296 22.8779 31.2337 23.1281 31.6791 23.5735C32.1245 24.0189 32.3747 24.623 32.3747 25.2529V34.7529Z" fill="white"/>
</svg>
