<svg width="60" height="60" viewBox="0 0 60 60" fill="none" xmlns="http://www.w3.org/2000/svg">
<rect x="1.19" y="1.19" width="57.62" height="57.62" rx="28.81" stroke="white" stroke-width="2.38"/>
<path fill-rule="evenodd" clip-rule="evenodd" d="M40.0365 25.9838H32.3848L36.9461 15.3421C37.0116 15.1894 37.0381 15.0228 37.0233 14.8574C37.0085 14.6919 36.9529 14.5327 36.8614 14.394C36.7699 14.2554 36.6454 14.1416 36.499 14.063C36.3527 13.9843 36.1892 13.9432 36.023 13.9434H25.9894C25.7929 13.9432 25.6006 14.0007 25.4365 14.1088C25.2724 14.2169 25.1437 14.3708 25.0663 14.5514L19.0461 28.5986C18.9806 28.7512 18.9541 28.9178 18.9689 29.0833C18.9837 29.2487 19.0393 29.4079 19.1308 29.5466C19.2223 29.6852 19.3468 29.799 19.4932 29.8776C19.6395 29.9563 19.803 29.9974 19.9692 29.9972H24.9338L19.038 44.6745C18.6367 45.6719 19.8748 46.5167 20.6575 45.7782L30.7393 36.2603L40.6887 27.7497C40.8446 27.6164 40.9559 27.4385 41.0076 27.24C41.0593 27.0415 41.0489 26.8319 40.9778 26.6395C40.9068 26.4471 40.7784 26.2811 40.6101 26.1639C40.4418 26.0466 40.2416 25.9838 40.0365 25.9838ZM30.8637 27.9905H37.3194L29.3968 34.7693L22.604 41.1808L27.3499 29.3671C27.4109 29.2149 27.4337 29.05 27.4162 28.887C27.3987 28.7239 27.3416 28.5676 27.2497 28.4317C27.1578 28.2959 27.034 28.1846 26.8892 28.1077C26.7443 28.0308 26.5828 27.9906 26.4188 27.9905H21.4903L26.6516 15.9501H34.5019L29.9406 26.5918C29.8752 26.7445 29.8487 26.9111 29.8635 27.0765C29.8782 27.242 29.9339 27.4012 30.0254 27.5398C30.1169 27.6785 30.2414 27.7922 30.3877 27.8709C30.534 27.9496 30.6976 27.9907 30.8637 27.9905Z" fill="white"/>
</svg>
