<svg width="60" height="60" viewBox="0 0 60 60" fill="none" xmlns="http://www.w3.org/2000/svg">
<rect x="1.19" y="1.19" width="57.62" height="57.62" rx="28.81" stroke="#0D4B7A" stroke-width="2.38"/>
<path d="M37.125 33.5625C36.882 33.5625 36.6456 33.5863 36.4161 33.6337L33.382 28.5786C34.2591 27.6929 34.7508 26.4965 34.75 25.25C34.75 22.6304 32.6196 20.5 30 20.5C27.3804 20.5 25.25 22.6304 25.25 25.25C25.25 26.5479 25.7749 27.7236 26.6216 28.5821L22.9284 34.7547L22.875 34.75C21.545 34.75 20.5 35.795 20.5 37.125C20.5 38.455 21.545 39.5 22.875 39.5C24.205 39.5 25.25 38.455 25.25 37.125C25.25 36.7094 25.1384 36.327 24.9567 35.9909L28.67 29.7874C29.0939 29.9121 29.5345 30 30 30C30.4655 30 30.9096 29.9109 31.3359 29.7862L34.3878 34.8711C33.8577 35.5028 33.5656 36.3003 33.5625 37.125C33.5625 39.0891 35.1609 40.6875 37.125 40.6875C39.0891 40.6875 40.6875 39.0891 40.6875 37.125C40.6875 35.1609 39.0891 33.5625 37.125 33.5625ZM27.625 25.25C27.625 23.9414 28.6914 22.875 30 22.875C31.3086 22.875 32.375 23.9414 32.375 25.25C32.375 26.5586 31.3098 27.625 30 27.625C28.6902 27.625 27.625 26.5598 27.625 25.25ZM37.125 38.3125C36.8099 38.3123 36.5078 38.187 36.2851 37.9641C36.0624 37.7412 35.9373 37.4389 35.9375 37.1238C35.9377 36.8087 36.063 36.5066 36.2859 36.2839C36.5088 36.0612 36.8111 35.9362 37.1262 35.9363C37.4413 35.9365 37.7434 36.0618 37.9661 36.2847C38.1888 36.5076 38.3138 36.8099 38.3137 37.125C38.3135 37.4401 38.1882 37.7422 37.9653 37.9649C37.7424 38.1876 37.4401 38.3127 37.125 38.3125ZM46.625 31.1875C46.625 22.0188 39.1675 14.5625 30 14.5625C20.8325 14.5625 13.375 22.02 13.375 31.1875C13.375 36.1227 15.7607 40.2647 17.3662 41.7491C18.5893 42.8784 20.4347 44.25 22.875 44.25C24.0574 44.2481 25.2207 43.9523 26.2604 43.3892C27.3001 42.8261 28.1836 42.0134 28.8313 41.0242C29.479 40.035 29.8706 38.9003 29.971 37.7222C30.0713 36.5441 29.8773 35.3595 29.4063 34.275L27.2308 35.225C27.545 35.9481 27.6746 36.738 27.6077 37.5237C27.5408 38.3093 27.2796 39.0659 26.8475 39.7255C26.4155 40.3851 25.8263 40.9269 25.1328 41.3021C24.4393 41.6773 23.6635 41.8742 22.875 41.875C20.2554 41.875 18.125 39.7446 18.125 37.125C18.125 34.5054 20.2554 32.375 22.875 32.375V30C19.8184 30 17.2118 31.9392 16.2024 34.6491C15.8974 33.5207 15.7453 32.3564 15.75 31.1875C15.75 23.3298 22.1423 16.9375 30 16.9375C37.8577 16.9375 44.25 23.3298 44.25 31.1875C44.2518 32.4339 44.0913 33.6751 43.7703 34.8794L46.0633 35.491C46.4374 34.0898 46.6262 32.641 46.625 31.1875Z" fill="#0D4B7A"/>
</svg>
