<svg width="91" height="90" viewBox="0 0 91 90" fill="none" xmlns="http://www.w3.org/2000/svg">
<path d="M90.4999 46.7311C90.4999 52.4133 89.3807 58.0399 87.2062 63.2896C85.0317 68.5392 81.8445 73.3092 77.8266 77.3271C73.8087 81.345 69.0387 84.5322 63.7891 86.7067C58.5394 88.8812 52.9128 90.0004 47.2307 90.0004V46.7311H90.4999Z" fill="#ADB5C2"/>
<path d="M0.500114 43.2689C0.500114 37.5867 1.61931 31.9601 3.79379 26.7104C5.96827 21.4608 9.15546 16.6908 13.1734 12.6729C17.1913 8.65497 21.9613 5.46778 27.2109 3.2933C32.4606 1.11882 38.0872 -0.00037384 43.7693 -0.00037384L43.7693 43.2689L0.500114 43.2689Z" fill="#ADB5C2"/>
<rect x="11.2307" y="10.7305" width="68.5385" height="68.5385" rx="34.2692" fill="white"/>
<rect x="11.2307" y="10.7305" width="68.5385" height="68.5385" rx="34.2692" stroke="black" stroke-width="3"/>
<g clip-path="url(#clip0_58_2941)">
<path d="M28.4202 62.0877C28.4391 60.4464 28.8717 58.8365 29.6781 57.4068C30.5284 55.92 31.7542 54.6825 33.2328 53.818C34.7114 52.9535 36.391 52.4924 38.1038 52.4806C41.5584 52.4885 44.8285 54.3978 46.5294 57.4068C47.3353 58.8357 47.768 60.4447 47.7873 62.0851M53.1144 30.1888V28.0264M60.4957 32.8444L62.2653 31.6023M45.7277 32.8444L43.9556 31.6023M38.1011 47.8867C38.7547 47.9018 39.4046 47.7862 40.0128 47.5466C40.6211 47.307 41.1752 46.9482 41.6428 46.4913C42.1104 46.0345 42.4819 45.4888 42.7356 44.8863C42.9893 44.2838 43.1199 43.6366 43.1199 42.9829C43.1199 42.3292 42.9893 41.6821 42.7356 41.0796C42.4819 40.4771 42.1104 39.9314 41.6428 39.4745C41.1752 39.0177 40.6211 38.6589 40.0128 38.4193C39.4046 38.1796 38.7547 38.064 38.1011 38.0792C36.8202 38.1089 35.6018 38.6385 34.7064 39.5549C33.8111 40.4713 33.3098 41.7017 33.3098 42.9829C33.3098 44.2641 33.8111 45.4945 34.7064 46.4109C35.6018 47.3273 36.8202 47.857 38.1011 47.8867ZM58.4757 39.8803C58.4712 39.1666 58.3258 38.4608 58.0478 37.8035C57.7698 37.1462 57.3647 36.5502 56.8558 36.0498C56.3469 35.5495 55.7441 35.1546 55.0821 34.8878C54.4202 34.621 53.712 34.4876 52.9983 34.4953C52.2849 34.5174 51.5829 34.6802 50.9327 34.9744C50.2824 35.2686 49.6966 35.6883 49.209 36.2095C48.7213 36.7307 48.3415 37.3431 48.0912 38.0115C47.8409 38.6799 47.7251 39.3912 47.7504 40.1045C47.8029 41.0583 48.1048 41.9816 48.6259 42.7821C49.147 43.5827 49.869 44.2326 50.7198 44.6667V47.3039C50.7246 47.459 50.7894 47.6061 50.9006 47.7144C51.0118 47.8226 51.1607 47.8834 51.3158 47.8841H54.905C55.0606 47.8841 55.2101 47.8236 55.3219 47.7153C55.4336 47.607 55.4988 47.4594 55.5036 47.3039V44.6193C56.3809 44.1712 57.1206 43.4942 57.6443 42.6599C58.168 41.8256 58.4536 40.8651 58.4757 39.8803Z" stroke="black" stroke-width="2.63714" stroke-linecap="round" stroke-linejoin="round"/>
</g>
<defs>
<clipPath id="clip0_58_2941">
<rect width="36.92" height="36.92" fill="white" transform="translate(27.04 26.54)"/>
</clipPath>
</defs>
</svg>
