<svg width="62" height="63" viewBox="0 0 62 63" fill="none" xmlns="http://www.w3.org/2000/svg">
<rect y="0.341309" width="62" height="62" rx="31" fill="white"/>
<g clip-path="url(#clip0_18_1619)">
<path d="M16.1963 46.1504C16.2127 44.7279 16.5877 43.3324 17.2866 42.0933C18.0236 40.8046 19.086 39.732 20.3676 38.9828C21.6491 38.2335 23.1049 37.8338 24.5894 37.8236C27.5837 37.8304 30.418 39.4853 31.8923 42.0933C32.5908 43.3318 32.9658 44.7264 32.9826 46.1481M37.5997 18.5024V16.6281M43.9974 20.8041L45.5311 19.7276M31.1974 20.8041L29.6614 19.7276M24.5871 33.8418C25.1536 33.855 25.717 33.7548 26.2441 33.5471C26.7713 33.3394 27.2516 33.0284 27.6569 32.6324C28.0621 32.2365 28.3842 31.7635 28.604 31.2413C28.8239 30.7191 28.9371 30.1582 28.9371 29.5916C28.9371 29.025 28.8239 28.4641 28.604 27.9419C28.3842 27.4197 28.0621 26.9467 27.6569 26.5507C27.2516 26.1547 26.7713 25.8438 26.2441 25.6361C25.717 25.4284 25.1536 25.3281 24.5871 25.3413C23.477 25.367 22.4209 25.8261 21.6449 26.6204C20.8688 27.4147 20.4343 28.4811 20.4343 29.5916C20.4343 30.702 20.8688 31.7684 21.6449 32.5627C22.4209 33.357 23.477 33.8161 24.5871 33.8418ZM42.2466 26.9024C42.2427 26.2838 42.1167 25.6721 41.8757 25.1024C41.6348 24.5326 41.2837 24.0161 40.8426 23.5824C40.4014 23.1487 39.879 22.8064 39.3053 22.5752C38.7315 22.344 38.1177 22.2284 37.4991 22.235C36.8808 22.2542 36.2724 22.3953 35.7087 22.6503C35.1451 22.9053 34.6374 23.2691 34.2147 23.7208C33.7921 24.1725 33.4629 24.7033 33.2459 25.2827C33.029 25.862 32.9286 26.4785 32.9506 27.0967C32.9961 27.9234 33.2577 28.7236 33.7094 29.4175C34.161 30.1114 34.7868 30.6747 35.5243 31.051V33.3367C35.5284 33.4711 35.5846 33.5987 35.681 33.6925C35.7773 33.7863 35.9064 33.839 36.0409 33.8396H39.1517C39.2866 33.8396 39.4162 33.7872 39.5131 33.6933C39.6099 33.5994 39.6664 33.4715 39.6706 33.3367V31.0099C40.4309 30.6215 41.0721 30.0347 41.526 29.3116C41.9799 28.5885 42.2274 27.756 42.2466 26.9024Z" stroke="black" stroke-width="2.28571" stroke-linecap="round" stroke-linejoin="round"/>
</g>
<defs>
<clipPath id="clip0_18_1619">
<rect width="32" height="32" fill="white" transform="translate(15 15.3413)"/>
</clipPath>
</defs>
</svg>
