<svg width="48" height="48" viewBox="0 0 48 48" fill="none" xmlns="http://www.w3.org/2000/svg">
<rect width="48" height="48" rx="24" transform="matrix(-1 0 0 1 48 0)" fill="#0D4B7A"/>
<path fill-rule="evenodd" clip-rule="evenodd" d="M24 5.5C28.9065 5.5 33.6121 7.4491 37.0815 10.9185C40.5509 14.3879 42.5 19.0935 42.5 24C42.5 28.9065 40.5509 33.6121 37.0815 37.0815C33.6121 40.5509 28.9065 42.5 24 42.5C19.0935 42.5 14.3879 40.5509 10.9185 37.0815C7.4491 33.6121 5.5 28.9065 5.5 24C5.5 19.0935 7.4491 14.3879 10.9185 10.9185C14.3879 7.4491 19.0935 5.5 24 5.5ZM45.5 24C45.5 12.126 35.874 2.5 24 2.5C12.126 2.5 2.5 12.126 2.5 24C2.5 35.874 12.126 45.5 24 45.5C35.874 45.5 45.5 35.874 45.5 24ZM23.06 16.94C22.7787 16.6591 22.3975 16.5013 22 16.5013C21.6025 16.5013 21.2213 16.6591 20.94 16.94L14.94 22.94C14.6591 23.2213 14.5013 23.6025 14.5013 24C14.5013 24.3975 14.6591 24.7787 14.94 25.06L20.94 31.06C21.0773 31.2074 21.2429 31.3256 21.4269 31.4076C21.6109 31.4895 21.8095 31.5336 22.011 31.5372C22.2124 31.5407 22.4124 31.5037 22.5992 31.4282C22.786 31.3528 22.9556 31.2405 23.0981 31.0981C23.2405 30.9556 23.3528 30.786 23.4282 30.5992C23.5037 30.4124 23.5407 30.2124 23.5372 30.011C23.5336 29.8095 23.4895 29.6109 23.4076 29.4269C23.3256 29.2429 23.2074 29.0773 23.06 28.94L19.62 25.5H32C32.3978 25.5 32.7794 25.342 33.0607 25.0607C33.342 24.7794 33.5 24.3978 33.5 24C33.5 23.6022 33.342 23.2206 33.0607 22.9393C32.7794 22.658 32.3978 22.5 32 22.5H19.62L23.06 19.06C23.3409 18.7787 23.4987 18.3975 23.4987 18C23.4987 17.6025 23.3409 17.2213 23.06 16.94Z" fill="white"/>
</svg>
