<svg width="48" height="48" viewBox="0 0 48 48" fill="none" xmlns="http://www.w3.org/2000/svg">
<rect width="48" height="48" rx="24" fill="#0D4B7A"/>
<path fill-rule="evenodd" clip-rule="evenodd" d="M24 5.5C19.0935 5.5 14.3879 7.4491 10.9185 10.9185C7.4491 14.3879 5.5 19.0935 5.5 24C5.5 28.9065 7.4491 33.6121 10.9185 37.0815C14.3879 40.5509 19.0935 42.5 24 42.5C28.9065 42.5 33.6121 40.5509 37.0815 37.0815C40.5509 33.6121 42.5 28.9065 42.5 24C42.5 19.0935 40.5509 14.3879 37.0815 10.9185C33.6121 7.4491 28.9065 5.5 24 5.5ZM2.5 24C2.5 12.126 12.126 2.5 24 2.5C35.874 2.5 45.5 12.126 45.5 24C45.5 35.874 35.874 45.5 24 45.5C12.126 45.5 2.5 35.874 2.5 24ZM24.94 16.94C25.2213 16.6591 25.6025 16.5013 26 16.5013C26.3975 16.5013 26.7787 16.6591 27.06 16.94L33.06 22.94C33.3409 23.2213 33.4987 23.6025 33.4987 24C33.4987 24.3975 33.3409 24.7787 33.06 25.06L27.06 31.06C26.9227 31.2074 26.7571 31.3256 26.5731 31.4076C26.3891 31.4895 26.1905 31.5336 25.989 31.5372C25.7876 31.5407 25.5876 31.5037 25.4008 31.4282C25.214 31.3528 25.0444 31.2405 24.9019 31.0981C24.7595 30.9556 24.6472 30.786 24.5718 30.5992C24.4963 30.4124 24.4593 30.2124 24.4628 30.011C24.4664 29.8095 24.5105 29.6109 24.5924 29.4269C24.6744 29.2429 24.7926 29.0773 24.94 28.94L28.38 25.5H16C15.6022 25.5 15.2206 25.342 14.9393 25.0607C14.658 24.7794 14.5 24.3978 14.5 24C14.5 23.6022 14.658 23.2206 14.9393 22.9393C15.2206 22.658 15.6022 22.5 16 22.5H28.38L24.94 19.06C24.6591 18.7787 24.5013 18.3975 24.5013 18C24.5013 17.6025 24.6591 17.2213 24.94 16.94Z" fill="white"/>
</svg>
