<svg width="24" height="24" viewBox="0 0 24 24" fill="none" xmlns="http://www.w3.org/2000/svg">
<path d="M1.87502 12.0003C1.87502 11.8014 1.95403 11.6106 2.09468 11.4699C2.23534 11.3293 2.4261 11.2503 2.62502 11.2503H18.5425L12.349 5.16027C12.2788 5.09119 12.2228 5.00895 12.1843 4.91825C12.1458 4.82755 12.1256 4.73015 12.1248 4.63163C12.1239 4.53311 12.1425 4.43539 12.1794 4.34404C12.2164 4.2527 12.2709 4.16952 12.34 4.09927C12.4091 4.02901 12.4913 3.97305 12.582 3.93457C12.6727 3.8961 12.7701 3.87586 12.8687 3.87503C13.0676 3.87334 13.2591 3.95076 13.401 4.09027L20.8995 11.4643L20.9095 11.4743C20.9796 11.5455 21.0347 11.63 21.0717 11.7229C21.1087 11.8157 21.1267 11.915 21.1247 12.0149C21.1228 12.1149 21.1009 12.2134 21.0603 12.3047C21.0197 12.396 20.9613 12.4783 20.8885 12.5468L13.401 19.9103C13.3308 19.9793 13.2476 20.0339 13.1563 20.0709C13.065 20.1078 12.9673 20.1264 12.8688 20.1256C12.7703 20.1248 12.673 20.1046 12.5823 20.0661C12.4916 20.0277 12.4093 19.9717 12.3403 19.9015C12.2712 19.8313 12.2166 19.7481 12.1797 19.6568C12.1427 19.5655 12.1241 19.4678 12.125 19.3693C12.1258 19.2708 12.146 19.1735 12.1844 19.0828C12.2229 18.9921 12.2788 18.9098 12.349 18.8408L18.5425 12.7503L2.62502 12.7503C2.4261 12.7503 2.23534 12.6712 2.09468 12.5306C1.95403 12.3899 1.87502 12.1992 1.87502 12.0003Z" fill="#1D2130"/>
</svg>
