<svg width="91" height="90" viewBox="0 0 91 90" fill="none" xmlns="http://www.w3.org/2000/svg">
<path d="M90.4999 46.7311C90.4999 52.4133 89.3807 58.0399 87.2062 63.2896C85.0317 68.5392 81.8445 73.3092 77.8266 77.3271C73.8087 81.345 69.0387 84.5322 63.7891 86.7067C58.5394 88.8812 52.9128 90.0004 47.2307 90.0004V46.7311H90.4999Z" fill="#ADB5C2"/>
<path d="M0.500114 43.2689C0.500114 37.5867 1.61931 31.9601 3.79379 26.7104C5.96827 21.4608 9.15546 16.6908 13.1734 12.6729C17.1913 8.65497 21.9613 5.46778 27.2109 3.2933C32.4606 1.11882 38.0872 -0.00037384 43.7693 -0.00037384L43.7693 43.2689L0.500114 43.2689Z" fill="#ADB5C2"/>
<rect x="11.2307" y="10.7305" width="68.5385" height="68.5385" rx="34.2692" fill="white"/>
<rect x="11.2307" y="10.7305" width="68.5385" height="68.5385" rx="34.2692" stroke="black" stroke-width="3"/>
<path d="M44.0461 56.5009L44.0445 56.4994C40.0606 52.8868 36.8468 49.9661 34.6155 47.2362C32.3968 44.5219 31.2704 42.1375 31.2704 39.6171C31.2704 35.5022 34.4753 32.31 38.5775 32.31C40.9054 32.31 43.1588 33.3997 44.6245 35.1074L45.5 36.1275L46.3755 35.1074C47.8412 33.3997 50.0946 32.31 52.4225 32.31C56.5248 32.31 59.7296 35.5022 59.7296 39.6171C59.7296 42.1375 58.6032 44.5219 56.3846 47.2362C54.1533 49.9661 50.9395 52.8868 46.9556 56.4994L46.9539 56.5009L45.5 57.8244L44.0461 56.5009Z" stroke="black" stroke-width="2.3075"/>
</svg>
