<svg width="62" height="63" viewBox="0 0 62 63" fill="none" xmlns="http://www.w3.org/2000/svg">
<rect y="0.341309" width="62" height="62" rx="31" fill="white"/>
<path d="M29.7402 41.3085L29.7387 41.3072C26.2857 38.176 23.5002 35.6445 21.5663 33.2784C19.6433 30.9258 18.667 28.8592 18.667 26.6746C18.667 23.1081 21.4448 20.3413 25.0003 20.3413C27.018 20.3413 28.9711 21.2858 30.2415 22.7659L31.0003 23.6501L31.7592 22.7659C33.0295 21.2858 34.9826 20.3413 37.0003 20.3413C40.5559 20.3413 43.3337 23.1081 43.3337 26.6746C43.3337 28.8592 42.3574 30.9258 40.4344 33.2784C38.5004 35.6445 35.7149 38.176 32.2619 41.3072L32.2605 41.3085L31.0003 42.4557L29.7402 41.3085Z" stroke="black" stroke-width="2"/>
</svg>
