<svg width="62" height="63" viewBox="0 0 62 63" fill="none" xmlns="http://www.w3.org/2000/svg">
<rect y="0.640625" width="62" height="62" rx="31" fill="white"/>
<path d="M18.7308 44.3969C18.1076 44.3969 17.6156 44.1965 17.2548 43.7958C16.9222 43.4255 16.7432 42.9398 16.7177 42.3386L16.7142 42.186V20.7095C16.7142 20.0291 16.8944 19.4906 17.2548 19.094C17.5874 18.7276 18.0321 18.5302 18.5891 18.502L18.7314 18.498H34.0497C34.6649 18.498 35.1529 18.6965 35.5137 19.0935C35.8462 19.4592 36.0253 19.9462 36.0508 20.5546L36.0537 20.7089V24.4746H43.2822C43.8499 24.4746 44.3091 24.6455 44.6599 24.9872L44.7457 25.0763C45.0786 25.4459 45.2577 25.9314 45.2828 26.5329L45.2862 26.6855V42.186C45.2862 42.858 45.106 43.3946 44.7457 43.7958C44.4131 44.1653 43.9718 44.3645 43.4217 44.3935L43.2817 44.3969H18.7308ZM36.0531 42.186C36.0531 42.2737 36.05 42.3588 36.0439 42.4415H42.6371C42.8721 42.4415 43.0464 42.3847 43.1599 42.2712C43.2571 42.1737 43.3125 42.0289 43.3262 41.8369L43.3302 41.7369V27.1352C43.3302 26.8921 43.2735 26.7139 43.1599 26.6003C43.0628 26.5032 42.9209 26.4478 42.7342 26.434L42.6371 26.4306L36.0531 26.43V42.186ZM33.4057 20.454H19.3748C19.1318 20.454 18.9535 20.5106 18.8399 20.6238C18.7428 20.7213 18.6874 20.866 18.6737 21.058L18.6702 21.1586V41.7369C18.6702 41.9796 18.7268 42.1577 18.8399 42.2712C18.9375 42.3683 19.0822 42.4238 19.2742 42.4375L19.3748 42.4415L22.1559 42.4409V38.858C22.1559 38.3792 22.255 38.016 22.4531 37.7683L22.5148 37.6975C22.7319 37.4727 23.0546 37.3502 23.4828 37.33L23.6142 37.3272H29.1537C29.6554 37.3272 30.0238 37.4506 30.2588 37.6975C30.4725 37.9222 30.5891 38.2622 30.6085 38.7175L30.6114 38.8575L30.6108 42.4409H33.4051C33.6401 42.4409 33.8142 42.3843 33.9274 42.2712C34.0245 42.1737 34.0801 42.0289 34.0942 41.8369L34.0977 41.7369V21.1586C34.0977 20.9156 34.0409 20.7373 33.9274 20.6238C33.8142 20.5106 33.6407 20.454 33.4057 20.454ZM28.6314 38.9186H24.1365C23.9011 38.9186 23.7725 39.0257 23.7508 39.2398L23.7479 39.3072L23.7474 42.4409H29.0194V39.3072C29.0194 39.0718 28.9125 38.9432 28.6988 38.9215L28.6314 38.9186ZM40.6697 37.7158C40.9219 37.7158 41.0584 37.8314 41.0794 38.0626L41.0822 38.1289V40.0238C41.0822 40.2763 40.9666 40.4131 40.7354 40.434L40.6697 40.4369H38.7137C38.4691 40.4369 38.3363 40.3213 38.3154 40.09L38.3131 40.0238V38.1289C38.3131 37.8763 38.4255 37.7396 38.6502 37.7186L38.7137 37.7158H40.6697ZM40.6697 33.0758C40.9219 33.0758 41.0584 33.1914 41.0794 33.4226L41.0822 33.4883V35.3832C41.0822 35.6358 40.9666 35.7725 40.7354 35.7935L40.6697 35.7963H38.7137C38.4691 35.7963 38.3363 35.6807 38.3154 35.4495L38.3131 35.3832V33.4883C38.3131 33.2358 38.4255 33.099 38.6502 33.078L38.7137 33.0752L40.6697 33.0758ZM24.7194 32.0912C25.0264 32.0912 25.1916 32.2327 25.2148 32.5158L25.2177 32.5895V34.8855C25.2177 35.1918 25.0761 35.3567 24.7931 35.3803L24.7194 35.3832H22.3508C22.0594 35.3832 21.9024 35.2419 21.8799 34.9592L21.8771 34.8849V32.5895C21.8771 32.2832 22.0116 32.118 22.2805 32.094L22.3508 32.0912H24.7194ZM30.4051 32.0912C30.7114 32.0912 30.8763 32.2327 30.8999 32.5158L30.9028 32.5895V34.8855C30.9028 35.1918 30.7613 35.3567 30.4782 35.3803L30.4045 35.3832H28.0479C27.7489 35.3832 27.5879 35.2419 27.5651 34.9592L27.5622 34.8849V32.5895C27.5622 32.2832 27.7001 32.118 27.9759 32.094L28.0479 32.0912H30.4051ZM40.6697 28.4346C40.9219 28.4346 41.0584 28.5504 41.0794 28.782L41.0822 28.8478V30.7432C41.0822 30.9954 40.9666 31.132 40.7354 31.1529L40.6697 31.1558H38.7137C38.4691 31.1558 38.3363 31.0401 38.3154 30.8089L38.3131 30.7432V28.8478C38.3131 28.596 38.4255 28.4592 38.6502 28.4375L38.7137 28.4346H40.6697ZM24.7194 27.2803C25.0264 27.2803 25.1916 27.422 25.2148 27.7055L25.2177 27.7786V30.0746C25.2177 30.3817 25.0761 30.5468 24.7931 30.57L24.7194 30.5729H22.3508C22.0594 30.5729 21.9024 30.4314 21.8799 30.1483L21.8771 30.0746V27.7786C21.8771 27.4723 22.0116 27.3074 22.2805 27.2838L22.3508 27.2809L24.7194 27.2803ZM30.4051 27.2803C30.7114 27.2803 30.8763 27.422 30.8999 27.7055L30.9028 27.7786V30.0746C30.9028 30.3817 30.7613 30.5468 30.4782 30.57L30.4045 30.5729H28.0479C27.7489 30.5729 27.5879 30.4314 27.5651 30.1483L27.5622 30.0746V27.7786C27.5622 27.4723 27.7001 27.3074 27.9759 27.2838L28.0479 27.2809L30.4051 27.2803ZM24.7194 22.4706C25.0264 22.4706 25.1916 22.612 25.2148 22.8946L25.2177 22.9689V25.2643C25.2177 25.5706 25.0761 25.7356 24.7931 25.7592L24.7194 25.7626H22.3508C22.0594 25.7626 21.9024 25.6211 21.8799 25.338L21.8771 25.2643V22.9683C21.8771 22.662 22.0116 22.4971 22.2805 22.4735L22.3508 22.4706H24.7194ZM30.4051 22.4706C30.7114 22.4706 30.8763 22.612 30.8999 22.8946L30.9028 22.9689V25.2643C30.9028 25.5706 30.7613 25.7356 30.4782 25.7592L30.4045 25.7626H28.0479C27.7489 25.7626 27.5879 25.6211 27.5651 25.338L27.5622 25.2643V22.9683C27.5622 22.662 27.7001 22.4971 27.9759 22.4735L28.0479 22.4706H30.4051Z" fill="black"/>
</svg>
