<svg width="91" height="90" viewBox="0 0 91 90" fill="none" xmlns="http://www.w3.org/2000/svg">
<path d="M90.4999 46.7311C90.4999 52.4133 89.3807 58.0399 87.2062 63.2896C85.0317 68.5392 81.8445 73.3092 77.8266 77.3271C73.8087 81.345 69.0387 84.5322 63.7891 86.7067C58.5394 88.8812 52.9128 90.0004 47.2307 90.0004V46.7311H90.4999Z" fill="#ADB5C2"/>
<path d="M0.500114 43.2689C0.500114 37.5867 1.61931 31.9601 3.79379 26.7104C5.96827 21.4608 9.15546 16.6908 13.1734 12.6729C17.1913 8.65497 21.9613 5.46778 27.2109 3.2933C32.4606 1.11882 38.0872 -0.00037384 43.7693 -0.00037384L43.7693 43.2689L0.500114 43.2689Z" fill="#ADB5C2"/>
<rect x="11.2307" y="10.7305" width="68.5385" height="68.5385" rx="34.2692" fill="white"/>
<rect x="11.2307" y="10.7305" width="68.5385" height="68.5385" rx="34.2692" stroke="black" stroke-width="3"/>
<path d="M34.7303 51.1517L42.4226 46.5363M48.5765 43.4594L56.2688 38.844M45.4995 34.2286V41.9209M45.4995 48.0747V55.7671M34.7303 38.844L42.4226 43.4594M48.5765 46.5363L56.2688 51.1517M58.5765 40.3824V48.844M47.8072 58.0747L56.2688 53.4594M33.9611 53.4594L43.1918 58.0747M32.4226 49.6132V40.3824M33.9611 36.5363L43.1918 31.9209M57.038 36.5363L47.8072 31.9209" stroke="black" stroke-width="2.30769" stroke-linecap="round" stroke-linejoin="round"/>
<path d="M45.4996 34.2287C46.7741 34.2287 47.8073 33.1955 47.8073 31.921C47.8073 30.6465 46.7741 29.6133 45.4996 29.6133C44.2251 29.6133 43.1919 30.6465 43.1919 31.921C43.1919 33.1955 44.2251 34.2287 45.4996 34.2287Z" stroke="black" stroke-width="2.30769" stroke-linecap="round" stroke-linejoin="round"/>
<path d="M45.4998 60.382C46.7743 60.382 47.8075 59.3488 47.8075 58.0743C47.8075 56.7998 46.7743 55.7666 45.4998 55.7666C44.2253 55.7666 43.1921 56.7998 43.1921 58.0743C43.1921 59.3488 44.2253 60.382 45.4998 60.382Z" stroke="black" stroke-width="2.30769" stroke-linecap="round" stroke-linejoin="round"/>
<path d="M32.4227 40.383C33.6972 40.383 34.7304 39.3498 34.7304 38.0753C34.7304 36.8008 33.6972 35.7676 32.4227 35.7676C31.1482 35.7676 30.115 36.8008 30.115 38.0753C30.115 39.3498 31.1482 40.383 32.4227 40.383Z" stroke="black" stroke-width="2.30769" stroke-linecap="round" stroke-linejoin="round"/>
<path d="M58.5762 40.383C59.8508 40.383 60.8839 39.3498 60.8839 38.0753C60.8839 36.8008 59.8508 35.7676 58.5762 35.7676C57.3017 35.7676 56.2686 36.8008 56.2686 38.0753C56.2686 39.3498 57.3017 40.383 58.5762 40.383Z" stroke="black" stroke-width="2.30769" stroke-linecap="round" stroke-linejoin="round"/>
<path d="M58.5762 54.2296C59.8508 54.2296 60.8839 53.1965 60.8839 51.922C60.8839 50.6474 59.8508 49.6143 58.5762 49.6143C57.3017 49.6143 56.2686 50.6474 56.2686 51.922C56.2686 53.1965 57.3017 54.2296 58.5762 54.2296Z" stroke="black" stroke-width="2.30769" stroke-linecap="round" stroke-linejoin="round"/>
<path d="M32.4227 54.2296C33.6972 54.2296 34.7304 53.1965 34.7304 51.922C34.7304 50.6474 33.6972 49.6143 32.4227 49.6143C31.1482 49.6143 30.115 50.6474 30.115 51.922C30.115 53.1965 31.1482 54.2296 32.4227 54.2296Z" stroke="black" stroke-width="2.30769" stroke-linecap="round" stroke-linejoin="round"/>
<path d="M45.4995 41.5371L48.5765 43.2679V46.7294L45.4995 48.4602L42.4226 46.7294V43.2679L45.4995 41.5371Z" stroke="black" stroke-width="2.30769" stroke-linecap="round" stroke-linejoin="round"/>
</svg>
