<svg width="62" height="63" viewBox="0 0 62 63" fill="none" xmlns="http://www.w3.org/2000/svg">
<rect y="0.341309" width="62" height="62" rx="31" fill="white"/>
<path d="M21.666 36.6746L28.3327 32.6746M33.666 30.008L40.3327 26.008M30.9993 22.008V28.6746M30.9993 34.008V40.6746M21.666 26.008L28.3327 30.008M33.666 32.6746L40.3327 36.6746M42.3327 27.3413V34.6746M32.9993 42.6746L40.3327 38.6746M20.9993 38.6746L28.9993 42.6746M19.666 35.3413V27.3413M20.9993 24.008L28.9993 20.008M40.9993 24.008L32.9993 20.008" stroke="black" stroke-width="2" stroke-linecap="round" stroke-linejoin="round"/>
<path d="M30.999 22.008C32.1036 22.008 32.999 21.1125 32.999 20.008C32.999 18.9034 32.1036 18.008 30.999 18.008C29.8945 18.008 28.999 18.9034 28.999 20.008C28.999 21.1125 29.8945 22.008 30.999 22.008Z" stroke="black" stroke-width="2" stroke-linecap="round" stroke-linejoin="round"/>
<path d="M30.999 44.6746C32.1036 44.6746 32.999 43.7792 32.999 42.6746C32.999 41.5701 32.1036 40.6746 30.999 40.6746C29.8945 40.6746 28.999 41.5701 28.999 42.6746C28.999 43.7792 29.8945 44.6746 30.999 44.6746Z" stroke="black" stroke-width="2" stroke-linecap="round" stroke-linejoin="round"/>
<path d="M19.666 27.3413C20.7706 27.3413 21.666 26.4459 21.666 25.3413C21.666 24.2367 20.7706 23.3413 19.666 23.3413C18.5614 23.3413 17.666 24.2367 17.666 25.3413C17.666 26.4459 18.5614 27.3413 19.666 27.3413Z" stroke="black" stroke-width="2" stroke-linecap="round" stroke-linejoin="round"/>
<path d="M42.333 27.3413C43.4376 27.3413 44.333 26.4459 44.333 25.3413C44.333 24.2367 43.4376 23.3413 42.333 23.3413C41.2284 23.3413 40.333 24.2367 40.333 25.3413C40.333 26.4459 41.2284 27.3413 42.333 27.3413Z" stroke="black" stroke-width="2" stroke-linecap="round" stroke-linejoin="round"/>
<path d="M42.333 39.3413C43.4376 39.3413 44.333 38.4459 44.333 37.3413C44.333 36.2367 43.4376 35.3413 42.333 35.3413C41.2284 35.3413 40.333 36.2367 40.333 37.3413C40.333 38.4459 41.2284 39.3413 42.333 39.3413Z" stroke="black" stroke-width="2" stroke-linecap="round" stroke-linejoin="round"/>
<path d="M19.666 39.3413C20.7706 39.3413 21.666 38.4459 21.666 37.3413C21.666 36.2367 20.7706 35.3413 19.666 35.3413C18.5614 35.3413 17.666 36.2367 17.666 37.3413C17.666 38.4459 18.5614 39.3413 19.666 39.3413Z" stroke="black" stroke-width="2" stroke-linecap="round" stroke-linejoin="round"/>
<path d="M30.9997 28.3413L33.6663 29.8413V32.8413L30.9997 34.3413L28.333 32.8413V29.8413L30.9997 28.3413Z" stroke="black" stroke-width="2" stroke-linecap="round" stroke-linejoin="round"/>
</svg>
